<svg xmlns="http://www.w3.org/2000/svg" xmlns:xlink="http://www.w3.org/1999/xlink" width="500" zoomAndPan="magnify" viewBox="0 0 375 374.999991" height="500" preserveAspectRatio="xMidYMid meet" version="1.0"><defs><clipPath id="6c32fd37d4"><path d="M 105 65.5 L 270 65.5 L 270 300.25 L 105 300.25 Z M 105 65.5 " clip-rule="nonzero"/></clipPath><clipPath id="b84499cf33"><path d="M 37.5 65.5 L 337.5 65.5 L 337.5 300.25 L 37.5 300.25 Z M 37.5 65.5 " clip-rule="nonzero"/></clipPath></defs><g clip-path="url(#6c32fd37d4)"><path fill="#5ce1e6" d="M 269.917969 65.5 L 241.953125 300.628906 L 187.304688 185.097656 L 133.078125 300.628906 L 105.109375 65.5 L 137.4375 172.476562 L 185.269531 65.929688 L 189.90625 65.929688 L 237.738281 172.183594 Z M 269.917969 65.5 " fill-opacity="1" fill-rule="nonzero"/></g><g clip-path="url(#b84499cf33)"><path fill="#0097b2" d="M 337.039062 65.5 L 259.046875 300.628906 L 241.953125 300.628906 L 269.917969 65.5 Z M 105.109375 65.5 L 37.992188 65.5 L 116.128906 300.628906 L 133.085938 300.628906 Z M 105.109375 65.5 " fill-opacity="1" fill-rule="nonzero"/></g></svg>